<?xml version="1.0" encoding="UTF-8"?>
<svg version="1.1" xmlns="http://www.w3.org/2000/svg" width="453" height="110">
<path d="M0 0 C55.78958785 0 55.78958785 0 66 9 C72.4026934 16.52693507 74.50053966 24.07128983 74.31640625 33.8671875 C73.53527641 41.6013373 70.72313239 48.65011538 65 54 C55.22703171 61.00480456 46.76596924 62.31493636 35 62.125 C31.37 62.08375 27.74 62.0425 24 62 C24 73.22 24 84.44 24 96 C16.08 96 8.16 96 0 96 C0 64.32 0 32.64 0 0 Z M24 20 C24 27.59 24 35.18 24 43 C35.52688999 43.8281886 35.52688999 43.8281886 46 40 C49.19534616 35.80610816 49.26052596 32.28602722 48.91015625 27.24609375 C47.50017761 23.76653272 45.26788702 21.69544623 42 20 C38.83549 19.42582745 35.82709707 19.52281906 32.625 19.6875 C29.77875 19.790625 26.9325 19.89375 24 20 Z " fill="#000000" transform="translate(5,9)"/>
<path d="M0 0 C8.25 0 16.5 0 25 0 C25 25.74 25 51.48 25 78 C35.23 78 45.46 78 56 78 C56 83.94 56 89.88 56 96 C37.52 96 19.04 96 0 96 C0 64.32 0 32.64 0 0 Z " fill="#000000" transform="translate(299,7)"/>
<path d="M0 0 C5.61 0 11.22 0 17 0 C17.83902947 4.22810923 18.67143487 8.45733911 19.5 12.6875 C19.73847656 13.88568359 19.97695312 15.08386719 20.22265625 16.31835938 C20.44824219 17.47529297 20.67382812 18.63222656 20.90625 19.82421875 C21.11572266 20.88729248 21.32519531 21.95036621 21.54101562 23.0456543 C21.96252805 25.75880423 22.08856503 28.26112659 22 31 C22.66 31 23.32 31 24 31 C24.1134375 29.741875 24.226875 28.48375 24.34375 27.1875 C24.95686392 21.67811015 26.18368268 16.37809649 27.5 11 C27.72558594 10.04738281 27.95117188 9.09476563 28.18359375 8.11328125 C29.86624765 1.13375235 29.86624765 1.13375235 31 0 C32.34267413 -0.08631874 33.68974322 -0.10706473 35.03515625 -0.09765625 C36.12775757 -0.09390991 36.12775757 -0.09390991 37.24243164 -0.09008789 C38.1730542 -0.08098389 39.10367676 -0.07187988 40.0625 -0.0625 C44.4865625 -0.0315625 44.4865625 -0.0315625 49 0 C51.31 9.57 53.62 19.14 56 29 C58.51115558 18.96057973 58.51115558 18.96057973 60.625 8.875 C61.89108911 2.21782178 61.89108911 2.21782178 63 0 C68.28 0 73.56 0 79 0 C76.41228693 11.58845419 73.424896 23.04366199 70.3125 34.5 C70.1085965 35.25489716 69.90469299 36.00979431 69.6946106 36.78756714 C69.10881579 38.95318917 68.51815874 41.11742048 67.92578125 43.28125 C67.57942627 44.55033203 67.23307129 45.81941406 66.8762207 47.12695312 C66 50 66 50 65 51 C63.58429877 51.08651611 62.164405 51.10704904 60.74609375 51.09765625 C59.89208984 51.09443359 59.03808594 51.09121094 58.15820312 51.08789062 C57.26037109 51.07951172 56.36253906 51.07113281 55.4375 51.0625 C54.53580078 51.05798828 53.63410156 51.05347656 52.70507812 51.04882812 C50.46998686 51.03700225 48.23502563 51.0205222 46 51 C45.823479 50.2479126 45.64695801 49.4958252 45.46508789 48.72094727 C44.6679379 45.33391174 43.86529525 41.94820171 43.0625 38.5625 C42.64581055 36.78649414 42.64581055 36.78649414 42.22070312 34.97460938 C41.95322266 33.84990234 41.68574219 32.72519531 41.41015625 31.56640625 C41.04096069 30.00321655 41.04096069 30.00321655 40.66430664 28.40844727 C40.23176541 26.06721987 40.23176541 26.06721987 39 25 C36.69 33.58 34.38 42.16 32 51 C25.73 51 19.46 51 13 51 C11.46892722 45.59259913 9.93860658 40.18499662 8.41015625 34.77685547 C7.89073382 32.93981854 7.37088378 31.10290246 6.85058594 29.26611328 C6.09976638 26.61523122 5.35052156 23.96390823 4.6015625 21.3125 C4.256129 20.09481934 4.256129 20.09481934 3.90371704 18.85253906 C0 5.0133057 0 5.0133057 0 0 Z " fill="#000000" transform="translate(124,52)"/>
<path d="M0 0 C0.61746094 0.31710938 1.23492187 0.63421875 1.87109375 0.9609375 C7.58611158 4.42681928 9.6769722 8.80525921 12 15 C12 19.29 12 23.58 12 28 C0.45 28 -11.1 28 -23 28 C-20.68586764 33.6054488 -20.68586764 33.6054488 -18.3125 35.4375 C-14.7203056 36.31127702 -11.63355525 35.60559254 -8 35 C-7.67 34.01 -7.34 33.02 -7 32 C-1.06 32 4.88 32 11 32 C9.76892013 38.15539935 7.26713794 42.53556405 2.1875 46.3671875 C-5.45306283 50.87907159 -14.24181118 51.24866802 -22.828125 49.38671875 C-29.97180572 46.89957838 -34.68782363 42.58306387 -38.09375 35.83203125 C-41.43649449 27.08827831 -40.77736652 18.46651116 -37 10 C-33.63284934 3.7467202 -29.2441848 0.31015155 -22.75 -2.3125 C-14.72237081 -3.78423202 -7.33598654 -3.83153437 0 0 Z M-21 13 C-21.66 14.65 -22.32 16.3 -23 18 C-17.06 18 -11.12 18 -5 18 C-5.9998982 13.7000935 -5.9998982 13.7000935 -9 11 C-13.66567721 9.18556997 -16.77329944 10.60752798 -21 13 Z " fill="#000000" transform="translate(244,54)"/>
<path d="M0 0 C6.47626183 4.42164073 9.22355954 10.51357233 11 18 C12.11564405 25.75879726 10.00618787 32.99205976 6.0625 39.6875 C1.4278004 45.57370602 -5.50671754 48.49267682 -12.765625 49.546875 C-22.06303133 49.88564689 -29.12939119 48.42534793 -36.09375 42.09765625 C-42.71628338 35.02728763 -43.52433464 28.28028133 -43.375 18.76953125 C-42.67291486 11.71211294 -39.85474479 6.44116052 -34.75 1.5625 C-24.45234589 -6.27170669 -11.15229354 -5.82763706 0 0 Z M-23 13 C-26.24032062 16.67236337 -26.46136895 20.13663141 -26.2890625 24.8515625 C-25.75576237 28.81527967 -23.9011956 31.03443329 -21.25 33.875 C-17.84106618 35.57946691 -15.61570806 34.96849323 -12 34 C-8.94225976 31.5055277 -7.18111788 29.58348779 -6.7265625 25.609375 C-6.40577235 19.07428792 -6.40577235 19.07428792 -9.1875 13.375 C-14.32700928 9.03496994 -17.3990931 9.34723463 -23 13 Z " fill="#000000" transform="translate(111,55)"/>
<path d="M0 0 C0 4.62 0 9.24 0 14 C-1.134375 14.4125 -2.26875 14.825 -3.4375 15.25 C-7.09543384 16.56685398 -7.09543384 16.56685398 -7.9375 19.1875 C-7.958125 19.785625 -7.97875 20.38375 -8 21 C-5.36 21 -2.72 21 0 21 C0 25.62 0 30.24 0 35 C-2.64 35 -5.28 35 -8 35 C-8 47.21 -8 59.42 -8 72 C-13.61 72 -19.22 72 -25 72 C-25 59.79 -25 47.58 -25 35 C-26.65 35 -28.3 35 -30 35 C-31 34 -31 34 -31.09765625 31.05859375 C-31.08605469 29.86363281 -31.07445312 28.66867188 -31.0625 27.4375 C-31.05347656 26.23996094 -31.04445313 25.04242188 -31.03515625 23.80859375 C-31.02355469 22.88175781 -31.01195312 21.95492187 -31 21 C-29.02 21 -27.04 21 -25 21 C-25.12375 19.515 -25.12375 19.515 -25.25 18 C-25.21224063 13.33671766 -23.79342228 9.72196208 -21 6 C-14.43281472 0.34104247 -8.52648597 0 0 0 Z " fill="#000000" transform="translate(413,31)"/>
<path d="M0 0 C5.61 0 11.22 0 17 0 C17 3.96 17 7.92 17 12 C20.3 12 23.6 12 27 12 C27.02685938 14.14576637 27.04633088 16.29162645 27.0625 18.4375 C27.07410156 19.63246094 27.08570313 20.82742187 27.09765625 22.05859375 C27 25 27 25 26 26 C23.03 26 20.06 26 17 26 C17.33 33.26 17.66 40.52 18 48 C20.64 48.33 23.28 48.66 26 49 C27 50 27 50 27.09765625 52.94140625 C27.08605469 54.13636719 27.07445312 55.33132812 27.0625 56.5625 C27.05347656 57.76003906 27.04445313 58.95757812 27.03515625 60.19140625 C27.02355469 61.11824219 27.01195312 62.04507813 27 63 C24.45767658 63.08152344 21.91800798 63.14073716 19.375 63.1875 C18.66214844 63.21263672 17.94929688 63.23777344 17.21484375 63.26367188 C12.3862972 63.33011976 9.19941758 62.63480596 5 60 C0.7539383 55.40966303 -0.12765581 52.1694417 -0.09765625 46.01953125 C-0.09443359 44.85615234 -0.09121094 43.69277344 -0.08789062 42.49414062 C-0.07951172 41.27919922 -0.07113281 40.06425781 -0.0625 38.8125 C-0.05798828 37.58595703 -0.05347656 36.35941406 -0.04882812 35.09570312 C-0.03703065 32.06375332 -0.02056921 29.03190094 0 26 C-0.969375 26.020625 -1.93875 26.04125 -2.9375 26.0625 C-6 26 -6 26 -7 25 C-7.07258946 22.81360547 -7.08373783 20.62499611 -7.0625 18.4375 C-7.05347656 17.23996094 -7.04445313 16.04242188 -7.03515625 14.80859375 C-7.02355469 13.88175781 -7.01195312 12.95492187 -7 12 C-4.69 12 -2.38 12 0 12 C0 8.04 0 4.08 0 0 Z " fill="#000000" transform="translate(422,40)"/>
<path d="M0 0 C0 5.94 0 11.88 0 18 C-3.7109375 18.24414062 -3.7109375 18.24414062 -7.421875 18.48828125 C-10.3812568 19.0756737 -11.82177564 19.93461159 -14 22 C-15.07955212 25.23865635 -15.20441741 27.79155838 -15.31640625 31.19921875 C-15.35830078 32.40771484 -15.40019531 33.61621094 -15.44335938 34.86132812 C-15.48267578 36.12396484 -15.52199219 37.38660156 -15.5625 38.6875 C-15.60568359 39.96173828 -15.64886719 41.23597656 -15.69335938 42.54882812 C-15.79954789 45.69908727 -15.90028813 48.8495292 -16 52 C-21.61 52 -27.22 52 -33 52 C-33 35.17 -33 18.34 -33 1 C-27.39 1 -21.78 1 -16 1 C-15.67 2.65 -15.34 4.3 -15 6 C-14.32904297 5.47599609 -14.32904297 5.47599609 -13.64453125 4.94140625 C-9.0355899 1.47241628 -5.85468461 0 0 0 Z " fill="#000000" transform="translate(296,51)"/>
<path d="M0 0 C5.61 0 11.22 0 17 0 C17 16.83 17 33.66 17 51 C11.39 51 5.78 51 0 51 C0 34.17 0 17.34 0 0 Z " fill="#000000" transform="translate(360,52)"/>
<path d="M0 0 C3.0625 2.0625 3.0625 2.0625 5 5 C5.77533825 9.34189423 5.50177019 11.21389337 3.125 14.9375 C-0.67155501 17.44322631 -3.1291974 17.78817099 -7.61328125 17.546875 C-10.21716956 16.95023938 -11.35152642 16.35061533 -13.1875 14.4375 C-15 11 -15 11 -15.125 7.375 C-12.67786652 0.03359957 -7.11980593 -1.46773576 0 0 Z " fill="#010101" transform="translate(373,30)"/>
</svg>
